<?xml version="1.0" encoding="UTF-8" standalone="no"?>
<!-- Created with Inkscape (http://www.inkscape.org/) -->
<svg height="300" id="svg2" version="1.1" width="310" xml:space="preserve" xmlns="http://www.w3.org/2000/svg" xmlns:xml="http://www.w3.org/XML/1998/namespace">
  <metadata id="metadata8">
    <rdf:RDF xmlns:rdf="http://www.w3.org/1999/02/22-rdf-syntax-ns#">
      <cc:Work rdf:about="" xmlns:cc="http://creativecommons.org/ns#">
        <dc:format xmlns:dc="http://purl.org/dc/elements/1.1/">image/svg+xml</dc:format>
        <dc:type rdf:resource="http://purl.org/dc/dcmitype/StillImage" xmlns:dc="http://purl.org/dc/elements/1.1/"/>
      </cc:Work>
    </rdf:RDF>
  </metadata>
  <defs id="defs6"/>
  <g id="g10" transform="matrix(1.25 0 0 -1.25 0 0)">
    <g id="g14" transform="translate(5 -230)">
      <g id="g16"/>
      <g id="g18">
        <g id="g20">
          <path d="m 189.002 132.612 c -11.9002 14.2302 -26.4103 34.1204 -40.2374 56.1485" id="path22" inkscape:connector-curvature="0" style="fill: none; stroke: #000000; stroke-dasharray: none; stroke-linecap: butt; stroke-linejoin: bevel; stroke-miterlimit: 10; stroke-opacity: 1; stroke-width: 1;" xmlns:inkscape="http://www.inkscape.org/namespaces/inkscape"/>
          <g id="g24" transform="matrix(-0.53348 0.8499 -0.8499 -0.53348 148.765 188.76)">
            <g id="g26">
              <path d="m 3.47371 0 c -1.44739 0.28947 -4.05266 0.86842 -5.78951 2.17107 c 1.44738 -1.59212 1.44738 -2.75002 0 -4.34214 c 1.73685 1.30265 4.34212 1.8816 5.78951 2.17107" id="path28" inkscape:connector-curvature="0" style="fill: #000000; fill-opacity: 1; fill-rule: nonzero; stroke: none;" xmlns:inkscape="http://www.inkscape.org/namespaces/inkscape"/>
            </g>
          </g>
          <g id="g30">
            <path d="M 144.282 191.432 C 147.422 158.042 147.692 86.9871 144.519 40.6999" id="path32" inkscape:connector-curvature="0" style="fill: none; stroke: #000000; stroke-dasharray: 1,1.99255; stroke-dashoffset: 0; stroke-linecap: butt; stroke-linejoin: bevel; stroke-miterlimit: 10; stroke-opacity: 1; stroke-width: 1;" xmlns:inkscape="http://www.inkscape.org/namespaces/inkscape"/>
            <g id="g34" transform="matrix(-0.06837 -0.9982 0.9982 -0.06837 144.519 40.6999)">
              <g id="g36">
                <path d="m 3.47371 0 c -1.44739 0.28947 -4.05266 0.86842 -5.78951 2.17107 c 1.44738 -1.59212 1.44738 -2.75002 0 -4.34214 c 1.73685 1.30265 4.34212 1.8816 5.78951 2.17107" id="path38" inkscape:connector-curvature="0" style="fill: #000000; fill-opacity: 1; fill-rule: nonzero; stroke: none;" xmlns:inkscape="http://www.inkscape.org/namespaces/inkscape"/>
              </g>
            </g>
          </g>
          <path d="M 132.202 191.562 C 115.911 164.292 78.99 112.821 49.3912 76.3642" id="path40" inkscape:connector-curvature="0" style="fill: none; stroke: #000000; stroke-dasharray: none; stroke-linecap: butt; stroke-linejoin: bevel; stroke-miterlimit: 10; stroke-opacity: 1; stroke-width: 1;" xmlns:inkscape="http://www.inkscape.org/namespaces/inkscape"/>
          <g id="g42" transform="matrix(-0.6309 -0.77705 0.77705 -0.6309 49.3912 76.3642)">
            <g id="g44">
              <path d="m 3.47371 0 c -1.44739 0.28947 -4.05266 0.86842 -5.78951 2.17107 c 1.44738 -1.59212 1.44738 -2.75002 0 -4.34214 c 1.73685 1.30265 4.34212 1.8816 5.78951 2.17107" id="path46" inkscape:connector-curvature="0" style="fill: #000000; fill-opacity: 1; fill-rule: nonzero; stroke: none;" xmlns:inkscape="http://www.inkscape.org/namespaces/inkscape"/>
            </g>
          </g>
          <g id="g48">
            <path d="m 147.102 37.3285 c 8.4301 14.4192 22.6103 34.6105 39.695 56.016" id="path50" inkscape:connector-curvature="0" style="fill: none; stroke: #000000; stroke-dasharray: 1,1.99255; stroke-dashoffset: 0; stroke-linecap: butt; stroke-linejoin: bevel; stroke-miterlimit: 10; stroke-opacity: 1; stroke-width: 1;" xmlns:inkscape="http://www.inkscape.org/namespaces/inkscape"/>
            <g id="g52" transform="matrix(0.6263 0.78468 -0.78468 0.6263 186.797 93.3445)">
              <g id="g54">
                <path d="m 3.47371 0 c -1.44739 0.28947 -4.05266 0.86842 -5.78951 2.17107 c 1.44738 -1.59212 1.44738 -2.75002 0 -4.34214 c 1.73685 1.30265 4.34212 1.8816 5.78951 2.17107" id="path56" inkscape:connector-curvature="0" style="fill: #000000; fill-opacity: 1; fill-rule: nonzero; stroke: none;" xmlns:inkscape="http://www.inkscape.org/namespaces/inkscape"/>
              </g>
            </g>
          </g>
          <path d="m 160.482 191.472 c 11.9101 -14.2302 26.4203 -34.1204 40.2474 -56.1485" id="path58" inkscape:connector-curvature="0" style="fill: none; stroke: #000000; stroke-dasharray: none; stroke-linecap: butt; stroke-linejoin: bevel; stroke-miterlimit: 10; stroke-opacity: 1; stroke-width: 1;" xmlns:inkscape="http://www.inkscape.org/namespaces/inkscape"/>
          <g id="g60" transform="matrix(0.53348 -0.8499 0.8499 0.53348 200.729 135.324)">
            <g id="g62">
              <path d="m 3.47371 0 c -1.44739 0.28947 -4.05266 0.86842 -5.78951 2.17107 c 1.44738 -1.59212 1.44738 -2.75002 0 -4.34214 c 1.73685 1.30265 4.34212 1.8816 5.78951 2.17107" id="path64" inkscape:connector-curvature="0" style="fill: #000000; fill-opacity: 1; fill-rule: nonzero; stroke: none;" xmlns:inkscape="http://www.inkscape.org/namespaces/inkscape"/>
            </g>
          </g>
          <path d="m 55.0197 188.372 c 14.4122 5.62008 32.3524 11.5702 54.6181 17.6714" id="path66" inkscape:connector-curvature="0" style="fill: none; stroke: #000000; stroke-dasharray: none; stroke-linecap: butt; stroke-linejoin: bevel; stroke-miterlimit: 10; stroke-opacity: 1; stroke-width: 1;" xmlns:inkscape="http://www.inkscape.org/namespaces/inkscape"/>
          <g id="g68" transform="matrix(0.96542 0.26453 -0.26453 0.96542 109.638 206.044)">
            <g id="g70">
              <path d="m 3.47371 0 c -1.44739 0.28947 -4.05266 0.86842 -5.78951 2.17107 c 1.44738 -1.59212 1.44738 -2.75002 0 -4.34214 c 1.73685 1.30265 4.34212 1.8816 5.78951 2.17107" id="path72" inkscape:connector-curvature="0" style="fill: #000000; fill-opacity: 1; fill-rule: nonzero; stroke: none;" xmlns:inkscape="http://www.inkscape.org/namespaces/inkscape"/>
            </g>
          </g>
          <g id="g74">
            <path d="m 135.922 37.2875 c -3.14003 33.3934 -3.40004 104.444 -0.22751 150.738" id="path76" inkscape:connector-curvature="0" style="fill: none; stroke: #000000; stroke-dasharray: 1,1.99255; stroke-dashoffset: 0; stroke-linecap: butt; stroke-linejoin: bevel; stroke-miterlimit: 10; stroke-opacity: 1; stroke-width: 1;" xmlns:inkscape="http://www.inkscape.org/namespaces/inkscape"/>
            <g id="g78" transform="matrix(0.06837 0.9982 -0.9982 0.06837 135.694 188.025)">
              <g id="g80">
                <path d="m 3.47371 0 c -1.44739 0.28947 -4.05266 0.86842 -5.78951 2.17107 c 1.44738 -1.59212 1.44738 -2.75002 0 -4.34214 c 1.73685 1.30265 4.34212 1.8816 5.78951 2.17107" id="path82" inkscape:connector-curvature="0" style="fill: #000000; fill-opacity: 1; fill-rule: nonzero; stroke: none;" xmlns:inkscape="http://www.inkscape.org/namespaces/inkscape"/>
              </g>
            </g>
          </g>
          <path d="m 35.9074 73.5819 c 16.2902 27.2794 53.2067 78.74 82.8031 115.201" id="path84" inkscape:connector-curvature="0" style="fill: none; stroke: #000000; stroke-dasharray: none; stroke-linecap: butt; stroke-linejoin: bevel; stroke-miterlimit: 10; stroke-opacity: 1; stroke-width: 1;" xmlns:inkscape="http://www.inkscape.org/namespaces/inkscape"/>
          <g id="g86" transform="matrix(0.63075 0.77705 -0.77705 0.63075 118.711 188.783)">
            <g id="g88">
              <path d="m 3.47371 0 c -1.44739 0.28947 -4.05266 0.86842 -5.78951 2.17107 c 1.44738 -1.59212 1.44738 -2.75002 0 -4.34214 c 1.73685 1.30265 4.34212 1.8816 5.78951 2.17107" id="path90" inkscape:connector-curvature="0" style="fill: #000000; fill-opacity: 1; fill-rule: nonzero; stroke: none;" xmlns:inkscape="http://www.inkscape.org/namespaces/inkscape"/>
            </g>
          </g>
          <path d="m 22.9643 73.5839 c -1.95802 18.9803 -2.23804 49.0276 -0.25971 77.8706" id="path92" inkscape:connector-curvature="0" style="fill: none; stroke: #000000; stroke-dasharray: none; stroke-linecap: butt; stroke-linejoin: bevel; stroke-miterlimit: 10; stroke-opacity: 1; stroke-width: 1;" xmlns:inkscape="http://www.inkscape.org/namespaces/inkscape"/>
          <g id="g94" transform="matrix(0.06844 0.9982 -0.9982 0.06844 22.7046 151.455)">
            <g id="g96">
              <path d="m 3.47371 0 c -1.44739 0.28947 -4.05266 0.86842 -5.78951 2.17107 c 1.44738 -1.59212 1.44738 -2.75002 0 -4.34214 c 1.73685 1.30265 4.34212 1.8816 5.78951 2.17107" id="path98" inkscape:connector-curvature="0" style="fill: #000000; fill-opacity: 1; fill-rule: nonzero; stroke: none;" xmlns:inkscape="http://www.inkscape.org/namespaces/inkscape"/>
            </g>
          </g>
          <path d="m 33.0364 155.142 c 1.95806 -18.9802 2.23804 -49.0306 0.25974 -77.8756" id="path100" inkscape:connector-curvature="0" style="fill: none; stroke: #000000; stroke-dasharray: none; stroke-linecap: butt; stroke-linejoin: bevel; stroke-miterlimit: 10; stroke-opacity: 1; stroke-width: 1;" xmlns:inkscape="http://www.inkscape.org/namespaces/inkscape"/>
          <g id="g102" transform="matrix(-0.06844 -0.9982 0.9982 -0.06844 33.2961 77.2664)">
            <g id="g104">
              <path d="m 3.47371 0 c -1.44739 0.28947 -4.05266 0.86842 -5.78951 2.17107 c 1.44738 -1.59212 1.44738 -2.75002 0 -4.34214 c 1.73685 1.30265 4.34212 1.8816 5.78951 2.17107" id="path106" inkscape:connector-curvature="0" style="fill: #000000; fill-opacity: 1; fill-rule: nonzero; stroke: none;" xmlns:inkscape="http://www.inkscape.org/namespaces/inkscape"/>
            </g>
          </g>
          <g id="g108">
            <path d="m 47.2496 155.002 c 22.7603 -27.0804 59.6918 -77.781 83.0388 -114.807" id="path110" inkscape:connector-curvature="0" style="fill: none; stroke: #000000; stroke-dasharray: 1,1.99255; stroke-dashoffset: 0; stroke-linecap: butt; stroke-linejoin: bevel; stroke-miterlimit: 10; stroke-opacity: 1; stroke-width: 1;" xmlns:inkscape="http://www.inkscape.org/namespaces/inkscape"/>
            <g id="g112" transform="matrix(0.53351 -0.84608 0.84608 0.53351 130.288 40.1945)">
              <g id="g114">
                <path d="m 3.47371 0 c -1.44739 0.28947 -4.05266 0.86842 -5.78951 2.17107 c 1.44738 -1.59212 1.44738 -2.75002 0 -4.34214 c 1.73685 1.30265 4.34212 1.8816 5.78951 2.17107" id="path116" inkscape:connector-curvature="0" style="fill: #000000; fill-opacity: 1; fill-rule: nonzero; stroke: none;" xmlns:inkscape="http://www.inkscape.org/namespaces/inkscape"/>
              </g>
            </g>
          </g>
          <path d="m 55.1097 169.612 c 31.3034 -7.84009 82.9121 -24.3403 123.825 -39.8273" id="path118" inkscape:connector-curvature="0" style="fill: none; stroke: #000000; stroke-dasharray: none; stroke-linecap: butt; stroke-linejoin: bevel; stroke-miterlimit: 10; stroke-opacity: 1; stroke-width: 1;" xmlns:inkscape="http://www.inkscape.org/namespaces/inkscape"/>
          <g id="g120" transform="matrix(0.93787 -0.35501 0.35501 0.93787 178.934 129.785)">
            <g id="g122">
              <path d="m 3.47371 0 c -1.44739 0.28947 -4.05266 0.86842 -5.78951 2.17107 c 1.44738 -1.59212 1.44738 -2.75002 0 -4.34214 c 1.73685 1.30265 4.34212 1.8816 5.78951 2.17107" id="path124" inkscape:connector-curvature="0" style="fill: #000000; fill-opacity: 1; fill-rule: nonzero; stroke: none;" xmlns:inkscape="http://www.inkscape.org/namespaces/inkscape"/>
            </g>
          </g>
          <path d="M 113.081 194.652 C 98.6732 189.022 80.733 183.082 58.4693 176.981" id="path126" inkscape:connector-curvature="0" style="fill: none; stroke: #000000; stroke-dasharray: none; stroke-linecap: butt; stroke-linejoin: bevel; stroke-miterlimit: 10; stroke-opacity: 1; stroke-width: 1;" xmlns:inkscape="http://www.inkscape.org/namespaces/inkscape"/>
          <g id="g128" transform="matrix(-0.96542 -0.26457 0.26457 -0.96542 58.4693 176.981)">
            <g id="g130">
              <path d="m 3.47371 0 c -1.44739 0.28947 -4.05266 0.86842 -5.78951 2.17107 c 1.44738 -1.59212 1.44738 -2.75002 0 -4.34214 c 1.73685 1.30265 4.34212 1.8816 5.78951 2.17107" id="path132" inkscape:connector-curvature="0" style="fill: #000000; fill-opacity: 1; fill-rule: nonzero; stroke: none;" xmlns:inkscape="http://www.inkscape.org/namespaces/inkscape"/>
            </g>
          </g>
          <g id="g134">
            <path d="M 120.852 37.2994 C 98.0953 64.3778 61.1628 115.081 37.8187 152.103" id="path136" inkscape:connector-curvature="0" style="fill: none; stroke: #000000; stroke-dasharray: 1,1.99255; stroke-dashoffset: 0; stroke-linecap: butt; stroke-linejoin: bevel; stroke-miterlimit: 10; stroke-opacity: 1; stroke-width: 1;" xmlns:inkscape="http://www.inkscape.org/namespaces/inkscape"/>
            <g id="g138" transform="matrix(-0.53351 0.84608 -0.84608 -0.53351 37.8187 152.103)">
              <g id="g140">
                <path d="m 3.47371 0 c -1.44739 0.28947 -4.05266 0.86842 -5.78951 2.17107 c 1.44738 -1.59212 1.44738 -2.75002 0 -4.34214 c 1.73685 1.30265 4.34212 1.8816 5.78951 2.17107" id="path142" inkscape:connector-curvature="0" style="fill: #000000; fill-opacity: 1; fill-rule: nonzero; stroke: none;" xmlns:inkscape="http://www.inkscape.org/namespaces/inkscape"/>
              </g>
            </g>
          </g>
          <path d="m 182.282 118.041 c -31.3104 7.84012 -82.9191 24.3503 -123.832 39.8373" id="path144" inkscape:connector-curvature="0" style="fill: none; stroke: #000000; stroke-dasharray: none; stroke-linecap: butt; stroke-linejoin: bevel; stroke-miterlimit: 10; stroke-opacity: 1; stroke-width: 1;" xmlns:inkscape="http://www.inkscape.org/namespaces/inkscape"/>
          <g id="g146" transform="matrix(-0.93787 0.35501 -0.35501 -0.93787 58.4506 157.879)">
            <g id="g148">
              <path d="m 3.47371 0 c -1.44739 0.28947 -4.05266 0.86842 -5.78951 2.17107 c 1.44738 -1.59212 1.44738 -2.75002 0 -4.34214 c 1.73685 1.30265 4.34212 1.8816 5.78951 2.17107" id="path150" inkscape:connector-curvature="0" style="fill: #000000; fill-opacity: 1; fill-rule: nonzero; stroke: none;" xmlns:inkscape="http://www.inkscape.org/namespaces/inkscape"/>
            </g>
          </g>
          <g id="g152">
            <path d="M 55.2187 52.6387 C 69.7659 48.9896 87.8641 43.3495 109.793 35.2871" id="path154" inkscape:connector-curvature="0" style="fill: none; stroke: #000000; stroke-dasharray: 1,1.99255; stroke-dashoffset: 0; stroke-linecap: butt; stroke-linejoin: bevel; stroke-miterlimit: 10; stroke-opacity: 1; stroke-width: 1;" xmlns:inkscape="http://www.inkscape.org/namespaces/inkscape"/>
            <g id="g156" transform="matrix(0.94089 -0.34593 0.34593 0.94089 109.793 35.2871)">
              <g id="g158">
                <path d="m 3.47371 0 c -1.44739 0.28947 -4.05266 0.86842 -5.78951 2.17107 c 1.44738 -1.59212 1.44738 -2.75002 0 -4.34214 c 1.73685 1.30265 4.34212 1.8816 5.78951 2.17107" id="path160" inkscape:connector-curvature="0" style="fill: #000000; fill-opacity: 1; fill-rule: nonzero; stroke: none;" xmlns:inkscape="http://www.inkscape.org/namespaces/inkscape"/>
              </g>
            </g>
          </g>
          <path d="M 182.222 100.181 C 151.042 87.8671 99.7653 71.0719 58.5436 60.0284" id="path162" inkscape:connector-curvature="0" style="fill: none; stroke: #000000; stroke-dasharray: none; stroke-linecap: butt; stroke-linejoin: bevel; stroke-miterlimit: 10; stroke-opacity: 1; stroke-width: 1;" xmlns:inkscape="http://www.inkscape.org/namespaces/inkscape"/>
          <g id="g164" transform="matrix(-0.96782 -0.25928 0.25928 -0.96782 58.5436 60.0284)">
            <g id="g166">
              <path d="m 3.47371 0 c -1.44739 0.28947 -4.05266 0.86842 -5.78951 2.17107 c 1.44738 -1.59212 1.44738 -2.75002 0 -4.34214 c 1.73685 1.30265 4.34212 1.8816 5.78951 2.17107" id="path168" inkscape:connector-curvature="0" style="fill: #000000; fill-opacity: 1; fill-rule: nonzero; stroke: none;" xmlns:inkscape="http://www.inkscape.org/namespaces/inkscape"/>
            </g>
          </g>
          <g id="g170">
            <path d="M 112.881 21.7863 C 98.3392 25.4353 80.241 31.0754 58.3121 39.1379" id="path172" inkscape:connector-curvature="0" style="fill: none; stroke: #000000; stroke-dasharray: 1,1.99255; stroke-dashoffset: 0; stroke-linecap: butt; stroke-linejoin: bevel; stroke-miterlimit: 10; stroke-opacity: 1; stroke-width: 1;" xmlns:inkscape="http://www.inkscape.org/namespaces/inkscape"/>
            <g id="g174" transform="matrix(-0.94089 0.34593 -0.34593 -0.94089 58.3121 39.1379)">
              <g id="g176">
                <path d="m 3.47371 0 c -1.44739 0.28947 -4.05266 0.86842 -5.78951 2.17107 c 1.44738 -1.59212 1.44738 -2.75002 0 -4.34214 c 1.73685 1.30265 4.34212 1.8816 5.78951 2.17107" id="path178" inkscape:connector-curvature="0" style="fill: #000000; fill-opacity: 1; fill-rule: nonzero; stroke: none;" xmlns:inkscape="http://www.inkscape.org/namespaces/inkscape"/>
              </g>
            </g>
          </g>
          <path d="m 55.1697 69.6039 c 31.1794 12.3152 82.452 29.1104 123.671 40.1567" id="path180" inkscape:connector-curvature="0" style="fill: none; stroke: #000000; stroke-dasharray: none; stroke-linecap: butt; stroke-linejoin: bevel; stroke-miterlimit: 10; stroke-opacity: 1; stroke-width: 1;" xmlns:inkscape="http://www.inkscape.org/namespaces/inkscape"/>
          <g id="g182" transform="matrix(0.96782 0.25934 -0.25934 0.96782 178.84 109.761)">
            <g id="g184">
              <path d="m 3.47371 0 c -1.44739 0.28947 -4.05266 0.86842 -5.78951 2.17107 c 1.44738 -1.59212 1.44738 -2.75002 0 -4.34214 c 1.73685 1.30265 4.34212 1.8816 5.78951 2.17107" id="path186" inkscape:connector-curvature="0" style="fill: #000000; fill-opacity: 1; fill-rule: nonzero; stroke: none;" xmlns:inkscape="http://www.inkscape.org/namespaces/inkscape"/>
            </g>
          </g>
          <g id="g188">
            <path d="M 202.393 96.0332 C 193.952 81.614 179.782 61.4228 162.698 40.0182" id="path190" inkscape:connector-curvature="0" style="fill: none; stroke: #000000; stroke-dasharray: 1,1.99255; stroke-dashoffset: 0; stroke-linecap: butt; stroke-linejoin: bevel; stroke-miterlimit: 10; stroke-opacity: 1; stroke-width: 1;" xmlns:inkscape="http://www.inkscape.org/namespaces/inkscape"/>
            <g id="g192" transform="matrix(-0.6263 -0.78468 0.78468 -0.6263 162.698 40.0182)">
              <g id="g194">
                <path d="m 3.47371 0 c -1.44739 0.28947 -4.05266 0.86842 -5.78951 2.17107 c 1.44738 -1.59212 1.44738 -2.75002 0 -4.34214 c 1.73685 1.30265 4.34212 1.8816 5.78951 2.17107" id="path196" inkscape:connector-curvature="0" style="fill: #000000; fill-opacity: 1; fill-rule: nonzero; stroke: none;" xmlns:inkscape="http://www.inkscape.org/namespaces/inkscape"/>
              </g>
            </g>
          </g>
          <g id="g198">
            <g id="g200">
              <g id="g202">
                <g id="g204" transform="scale(-1)">
                  <g id="g206" transform="matrix(-1 0 0 -1 83.84 -283.74)">
                    <g id="g208"/>
                    <g id="g210" transform="translate(214.26 -267.95)">
                      <g id="g212"/>
                      <g id="g214">
                        <g id="g216" transform="scale(-1)">
                          <g id="g218" transform="matrix(-1 0 0 -1 214.26 -267.95)">
                            <g id="g220"/>
                            <text id="text222" transform="matrix(1 0 0 -1 214.26 -267.95)">
                              <tspan id="tspan224" style="font-family: CMR10; font-size: 9.96px; font-variant: normal; font-weight: normal; writing-mode: lr-tb; fill: #000000; fill-opacity: 1; fill-rule: nonzero; stroke: none; -inkscape-font-specification: CMR10;" x="0 4.9815 9.963 14.9445" y="0">310e</tspan>
                            </text>
                          </g>
                        </g>
                      </g>
                    </g>
                  </g>
                </g>
              </g>
            </g>
            <g id="g226">
              <path d="M 141.985 11.9694 C 145.654 -1.721 134.549 -1.721 137.059 7.64333" id="path228" inkscape:connector-curvature="0" style="fill: none; stroke: #000000; stroke-dasharray: none; stroke-linecap: butt; stroke-linejoin: bevel; stroke-miterlimit: 10; stroke-opacity: 1; stroke-width: 1;" xmlns:inkscape="http://www.inkscape.org/namespaces/inkscape"/>
              <g id="g230" transform="matrix(0.25931 0.96782 -0.96782 0.25931 137.059 7.64333)">
                <g id="g232">
                  <path d="m 3.47371 0 c -1.44739 0.28947 -4.05266 0.86842 -5.78951 2.17107 c 1.44738 -1.59212 1.44738 -2.75002 0 -4.34214 c 1.73685 1.30265 4.34212 1.8816 5.78951 2.17107" id="path234" inkscape:connector-curvature="0" style="fill: #000000; fill-opacity: 1; fill-rule: nonzero; stroke: none;" xmlns:inkscape="http://www.inkscape.org/namespaces/inkscape"/>
                </g>
              </g>
            </g>
          </g>
          <g id="g236">
            <g id="g238">
              <g id="g240">
                <g id="g242" transform="scale(-1)">
                  <g id="g244" transform="matrix(-1 0 0 -1 83.84 -283.74)">
                    <g id="g246"/>
                    <g id="g248" transform="translate(102.42 -231.53)">
                      <g id="g250"/>
                      <g id="g252">
                        <g id="g254" transform="scale(-1)">
                          <g id="g256" transform="matrix(-1 0 0 -1 102.42 -231.53)">
                            <g id="g258"/>
                            <text id="text260" transform="matrix(1 0 0 -1 102.42 -231.53)">
                              <tspan id="tspan262" style="font-family: CMR10; font-size: 9.96px; font-variant: normal; font-weight: normal; writing-mode: lr-tb; fill: #000000; fill-opacity: 1; fill-rule: nonzero; stroke: none; -inkscape-font-specification: CMR10;" x="0 4.9815 9.963 14.9445" y="0">311r</tspan>
                            </text>
                          </g>
                        </g>
                      </g>
                    </g>
                  </g>
                </g>
              </g>
            </g>
            <g id="g264">
              <path d="M 14.7566 51.8765 C -6.63252 46.1445 -6.63252 64.7049 10.4305 60.1327" id="path266" inkscape:connector-curvature="0" style="fill: none; stroke: #000000; stroke-dasharray: none; stroke-linecap: butt; stroke-linejoin: bevel; stroke-miterlimit: 10; stroke-opacity: 1; stroke-width: 1;" xmlns:inkscape="http://www.inkscape.org/namespaces/inkscape"/>
              <g id="g268" transform="matrix(0.96782 -0.2593 0.2593 0.96782 10.4305 60.1327)">
                <g id="g270">
                  <path d="m 3.47371 0 c -1.44739 0.28947 -4.05266 0.86842 -5.78951 2.17107 c 1.44738 -1.59212 1.44738 -2.75002 0 -4.34214 c 1.73685 1.30265 4.34212 1.8816 5.78951 2.17107" id="path272" inkscape:connector-curvature="0" style="fill: #000000; fill-opacity: 1; fill-rule: nonzero; stroke: none;" xmlns:inkscape="http://www.inkscape.org/namespaces/inkscape"/>
                </g>
              </g>
            </g>
          </g>
          <g id="g274">
            <g id="g276">
              <g id="g278">
                <g id="g280" transform="scale(-1)">
                  <g id="g282" transform="matrix(-1 0 0 -1 83.84 -283.74)">
                    <g id="g284"/>
                    <g id="g286" transform="translate(214.52 -77.23)">
                      <g id="g288"/>
                      <g id="g290">
                        <g id="g292" transform="scale(-1)">
                          <g id="g294" transform="matrix(-1 0 0 -1 214.52 -77.23)">
                            <g id="g296"/>
                            <text id="text298" transform="matrix(1 0 0 -1 214.52 -77.23)">
                              <tspan id="tspan300" style="font-family: CMR10; font-size: 9.96px; font-variant: normal; font-weight: normal; writing-mode: lr-tb; fill: #000000; fill-opacity: 1; fill-rule: nonzero; stroke: none; -inkscape-font-specification: CMR10;" x="0 4.9815 9.963 14.9445" y="0">212r</tspan>
                            </text>
                          </g>
                        </g>
                      </g>
                    </g>
                  </g>
                </g>
              </g>
            </g>
            <g id="g302">
              <path d="m 138.218 216.753 c -3.66908 13.6905 7.43571 13.6905 4.92646 4.32613" id="path304" inkscape:connector-curvature="0" style="fill: none; stroke: #000000; stroke-dasharray: none; stroke-linecap: butt; stroke-linejoin: bevel; stroke-miterlimit: 10; stroke-opacity: 1; stroke-width: 1;" xmlns:inkscape="http://www.inkscape.org/namespaces/inkscape"/>
              <g id="g306" transform="matrix(-0.25931 -0.96782 0.96782 -0.25931 143.145 221.08)">
                <g id="g308">
                  <path d="m 3.47371 0 c -1.44739 0.28947 -4.05266 0.86842 -5.78951 2.17107 c 1.44738 -1.59212 1.44738 -2.75002 0 -4.34214 c 1.73685 1.30265 4.34212 1.8816 5.78951 2.17107" id="path310" inkscape:connector-curvature="0" style="fill: #000000; fill-opacity: 1; fill-rule: nonzero; stroke: none;" xmlns:inkscape="http://www.inkscape.org/namespaces/inkscape"/>
                </g>
              </g>
            </g>
          </g>
          <g id="g312">
            <g id="g314">
              <g id="g316">
                <g id="g318" transform="scale(-1)">
                  <g id="g320" transform="matrix(-1 0 0 -1 83.84 -283.74)">
                    <g id="g322"/>
                    <g id="g324" transform="translate(102.42 -113.65)">
                      <g id="g326"/>
                      <g id="g328">
                        <g id="g330" transform="scale(-1)">
                          <g id="g332" transform="matrix(-1 0 0 -1 102.42 -113.65)">
                            <g id="g334"/>
                            <text id="text336" transform="matrix(1 0 0 -1 102.42 -113.65)">
                              <tspan id="tspan338" style="font-family: CMR10; font-size: 9.96px; font-variant: normal; font-weight: normal; writing-mode: lr-tb; fill: #000000; fill-opacity: 1; fill-rule: nonzero; stroke: none; -inkscape-font-specification: CMR10;" x="0 4.9815 9.963 14.9445" y="0">210r</tspan>
                            </text>
                          </g>
                        </g>
                      </g>
                    </g>
                  </g>
                </g>
              </g>
            </g>
            <g id="g340">
              <path d="m 14.7566 169.754 c -21.3892 -5.73202 -21.3892 12.8283 -4.32613 8.25617" id="path342" inkscape:connector-curvature="0" style="fill: none; stroke: #000000; stroke-dasharray: none; stroke-linecap: butt; stroke-linejoin: bevel; stroke-miterlimit: 10; stroke-opacity: 1; stroke-width: 1;" xmlns:inkscape="http://www.inkscape.org/namespaces/inkscape"/>
              <g id="g344" transform="matrix(0.96782 -0.2593 0.2593 0.96782 10.4305 178.01)">
                <g id="g346">
                  <path d="m 3.47371 0 c -1.44739 0.28947 -4.05266 0.86842 -5.78951 2.17107 c 1.44738 -1.59212 1.44738 -2.75002 0 -4.34214 c 1.73685 1.30265 4.34212 1.8816 5.78951 2.17107" id="path348" inkscape:connector-curvature="0" style="fill: #000000; fill-opacity: 1; fill-rule: nonzero; stroke: none;" xmlns:inkscape="http://www.inkscape.org/namespaces/inkscape"/>
                </g>
              </g>
            </g>
          </g>
          <g id="g350">
            <g id="g352">
              <g id="g354">
                <g id="g356" transform="scale(-1)">
                  <g id="g358" transform="matrix(-1 0 0 -1 83.84 -283.74)">
                    <g id="g360"/>
                    <g id="g362" transform="translate(283.81 -172.59)">
                      <g id="g364"/>
                      <g id="g366">
                        <g id="g368" transform="scale(-1)">
                          <g id="g370" transform="matrix(-1 0 0 -1 283.81 -172.59)">
                            <g id="g372"/>
                            <text id="text374" transform="matrix(1 0 0 -1 283.81 -172.59)">
                              <tspan id="tspan376" style="font-family: CMR10; font-size: 9.96px; font-variant: normal; font-weight: normal; writing-mode: lr-tb; fill: #000000; fill-opacity: 1; fill-rule: nonzero; stroke: none; -inkscape-font-specification: CMR10;" x="0 4.9815 9.963 14.9445" y="0">032r</tspan>
                            </text>
                          </g>
                        </g>
                      </g>
                    </g>
                  </g>
                </g>
              </g>
            </g>
            <g id="g378">
              <path d="m 222.636 117.91 c 21.3892 5.73203 21.3892 -12.8283 4.32614 -8.25616" id="path380" inkscape:connector-curvature="0" style="fill: none; stroke: #000000; stroke-dasharray: none; stroke-linecap: butt; stroke-linejoin: bevel; stroke-miterlimit: 10; stroke-opacity: 1; stroke-width: 1;" xmlns:inkscape="http://www.inkscape.org/namespaces/inkscape"/>
              <g id="g382" transform="matrix(-0.96782 0.2593 -0.2593 -0.96782 226.963 109.653)">
                <g id="g384">
                  <path d="m 3.47371 0 c -1.44739 0.28947 -4.05266 0.86842 -5.78951 2.17107 c 1.44738 -1.59212 1.44738 -2.75002 0 -4.34214 c 1.73685 1.30265 4.34212 1.8816 5.78951 2.17107" id="path386" inkscape:connector-curvature="0" style="fill: #000000; fill-opacity: 1; fill-rule: nonzero; stroke: none;" xmlns:inkscape="http://www.inkscape.org/namespaces/inkscape"/>
                </g>
              </g>
            </g>
          </g>
        </g>
      </g>
    </g>
  </g>
</svg>